<svg width="193" height="30" xmlns="http://www.w3.org/2000/svg"><path d="M4.609 29.478V18.043H7.39c3.305 0 5.652-1.826 5.652-5.826V6.391c0-4.043-2.347-5.87-5.652-5.87H0v28.957h4.609zM7 14.348H4.609v-9.87H7c1.087 0 1.565.652 1.565 1.913v6.044c0 1.26-.478 1.913-1.565 1.913zm10.296 15.13l.87-5.652h4.217l.739 5.652h4.695L22.991.522h-5.087l-4.826 28.956h4.218zm4.565-9.521h-3.13L20.425 8.13l1.435 11.827zM35.29 30c1.957 0 3.652-.826 4.435-2.478l.696 1.956H42.9V15h-6.74v3.478h2.262v5.174c0 1.261-.783 2.305-2.348 2.305-1.522 0-2.348-1.044-2.348-2.305V6.435c0-1.218.783-2.261 2.304-2.261 1.566 0 2.305 1 2.305 2.217v4.13h4.348V6.653C42.683 2.957 40.29 0 36.03 0c-4.26 0-6.956 3.043-6.956 6.652v16.696c0 3.913 2.391 6.652 6.217 6.652zm21.652-.522v-4.174h-6.652V.522h-4.608v28.956h11.26zm6.696 0V.522H59.03v28.956h4.61zm6.044 0l.87-5.652h4.217l.739 5.652h4.695L75.378.522h-5.087l-4.826 28.956h4.218zm4.565-9.521h-3.13L72.812 8.13l1.435 11.827zM88.457 30c4.26 0 6.565-2.783 6.565-6.652V19.13h-4.087v4.305c0 1.391-.783 2.391-2.392 2.391-1.608 0-2.39-1-2.39-2.348V6.522c0-1.348.782-2.348 2.39-2.348 1.61 0 2.392 1 2.392 2.391v4.261h4.087V6.652c0-3.87-2.305-6.652-6.565-6.652-4.218 0-7 2.957-7 6.913v16.174c0 3.956 2.782 6.913 7 6.913zm15.87 0c4.26 0 6.564-2.783 6.564-6.652V19.13h-4.087v4.305c0 1.391-.782 2.391-2.391 2.391s-2.391-1-2.391-2.348V6.522c0-1.348.782-2.348 2.391-2.348s2.391 1 2.391 2.391v4.261h4.087V6.652c0-3.87-2.304-6.652-6.565-6.652-4.217 0-7 2.957-7 6.913v16.174c0 3.956 2.783 6.913 7 6.913zm13.782-.522V.522H113.5v28.956h4.609zm13.608 0V18.043h2.783c3.304 0 5.652-1.826 5.652-5.826V6.391c0-4.043-2.348-5.87-5.652-5.87h-7.391v28.957h4.608zm2.392-15.13h-2.392v-9.87h2.392c1.087 0 1.565.652 1.565 1.913v6.044c0 1.26-.478 1.913-1.565 1.913zm13.13 15.13V.522h-4.609v28.956h4.61zm14.957 0v-4.174h-7.435l7.782-23.174V.522h-12.695v4.13h7.391l-7.87 23.218v1.608h12.827zm14.26 0v-4.174h-7.434l7.782-23.174V.522H164.11v4.13h7.391l-7.87 23.218v1.608h12.827zm5.348 0l.87-5.652h4.217l.74 5.652h4.695L187.5.522h-5.087l-4.826 28.956h4.217zm4.566-9.521h-3.13l1.695-11.827 1.435 11.827z" fill="#af231c" fill-rule="nonzero"/></svg>
